<svg xmlns="http://www.w3.org/2000/svg" width="512" height="512" viewBox="0 0 512 512" version="1.1"><path d="M 235.660 32.069 C 222.930 33.287, 212.813 35.421, 209.511 37.585 C 203.930 41.242, 203 45.132, 203 64.830 L 203 82.741 195.250 85.474 C 190.988 86.978, 183.490 90.192, 178.589 92.617 L 169.679 97.025 157.089 84.669 C 145.867 73.655, 143.957 72.186, 139.500 71.136 C 132.598 69.510, 129.611 70.611, 119.243 78.603 C 101.168 92.536, 87.183 106.869, 74.760 124.195 C 63.493 139.908, 63.941 142.227, 81.986 161.551 C 89.737 169.853, 94.841 176.107, 94.594 177 C 94.365 177.825, 92 184.237, 89.339 191.249 L 84.500 203.997 68.693 203.999 C 50.669 204, 45.114 205.040, 40.967 209.187 C 36.863 213.291, 35.116 220.237, 33.924 237.181 C 32.822 252.851, 34.060 286.842, 36.057 295.756 C 37.420 301.835, 41.221 306.742, 46.384 309.087 C 49.881 310.675, 53.064 310.959, 67.553 310.978 L 84.606 311 86.931 318.250 C 88.210 322.238, 91.712 330.406, 94.713 336.402 L 100.169 347.303 87.693 359.902 C 80.831 366.831, 74.718 373.483, 74.108 374.684 C 72.581 377.695, 72.721 382.397, 74.463 386.565 C 77.697 394.306, 101.817 420.494, 116.500 432.208 C 130.460 443.344, 138.045 448, 142.228 448 C 148.254 448, 151.564 445.727, 165.163 432.252 L 177.825 419.703 184.663 422.255 C 188.423 423.658, 194.088 425.782, 197.250 426.975 L 203 429.144 203 447.112 C 203 462.929, 203.233 465.535, 204.942 468.887 C 207.333 473.573, 210.288 475.579, 217.605 477.485 C 226.998 479.932, 250.679 481.141, 267.254 480.020 C 285.556 478.782, 294.571 476.804, 300.761 472.667 C 308.339 467.603, 308.997 465.393, 308.999 445 L 309.001 427.500 317.250 424.675 C 321.788 423.121, 328.166 420.661, 331.425 419.209 L 337.350 416.570 348.425 428.260 C 359.914 440.387, 363.831 443, 370.518 443 C 375.347 443, 378.667 441.152, 390.970 431.616 C 409.182 417.499, 435.620 389.389, 438.969 380.580 C 440.441 376.711, 440.243 371.314, 438.495 367.630 C 437.667 365.886, 431.667 359.149, 425.160 352.660 L 413.331 340.862 417.660 332.237 C 420.040 327.494, 423.228 320.101, 424.744 315.809 L 427.500 308.005 443.307 308.003 C 452.001 308.001, 461.045 307.514, 463.404 306.920 C 468.358 305.672, 472.666 302.059, 474.506 297.607 C 477.156 291.195, 478.479 275.545, 478.490 250.500 C 478.501 222.160, 477.667 216.327, 472.675 209.822 C 466.376 201.616, 466.132 201.538, 445.430 201.188 C 428.174 200.896, 427 200.757, 427 198.998 C 427 196.443, 422.218 183.215, 419.931 179.444 L 418.077 176.389 429.145 165.444 C 444.199 150.559, 446 148.004, 446 141.537 C 446 136.871, 445.423 135.530, 439.996 127.576 C 426.089 107.196, 409.670 89.918, 392.266 77.350 C 379.018 67.782, 375.864 68.575, 358.700 85.791 L 345.899 98.629 334.700 93.019 C 328.540 89.933, 320.238 86.360, 316.250 85.079 L 309 82.749 308.984 64.625 C 308.968 47.719, 308.817 46.237, 306.734 42.588 C 305.505 40.437, 302.902 37.852, 300.950 36.844 C 292.960 32.719, 256.631 30.063, 235.660 32.069 M 238.348 65.693 C 236.263 66.100, 236.184 66.648, 235.821 83.307 C 235.301 107.171, 234.228 108.881, 216.576 113.951 C 205.373 117.169, 192.863 122.508, 180.500 129.350 C 173.260 133.357, 167.168 134.761, 162.314 133.543 C 160.620 133.117, 154.489 127.872, 146.832 120.296 L 134.156 107.753 126.603 114.902 C 116.933 124.055, 105 136.656, 105 137.714 C 105 138.164, 110.206 143.700, 116.570 150.016 C 122.933 156.332, 128.783 162.715, 129.570 164.200 C 131.845 168.496, 131.263 173.176, 127.402 181.625 C 121.395 194.770, 116.204 208.380, 113.456 218.188 C 109.041 233.948, 106.841 235.233, 83.042 235.964 L 65.585 236.500 64.722 240.500 C 63.697 245.252, 64.185 272.954, 65.325 274.750 C 65.899 275.655, 70.086 276, 80.510 276 C 106.601 276, 108.401 277.142, 115.004 297.868 C 119.372 311.581, 126.604 327.015, 133.492 337.326 C 136.642 342.041, 137.381 344.044, 137.368 347.826 C 137.344 354.602, 135.047 358.237, 123.245 370.171 L 112.692 380.842 118.411 387.356 C 123.721 393.404, 132.459 401.499, 139.441 406.839 L 142.382 409.089 154.441 397.083 C 166.608 384.971, 171.065 382, 177.071 382 C 178.904 382, 185.669 384.683, 193.353 388.456 C 200.584 392.007, 210.100 395.876, 214.500 397.053 C 228.043 400.677, 230.859 401.949, 233.767 405.758 C 236.481 409.313, 236.502 409.463, 236.811 427.556 L 237.121 445.774 240.186 446.387 C 244.194 447.189, 268.852 447.180, 272.875 446.375 L 276 445.750 276 431.424 C 276 423.545, 276.484 414.843, 277.075 412.087 C 278.448 405.684, 282.838 401.643, 290.754 399.494 C 304.454 395.775, 313.282 392.389, 324.909 386.396 C 337.840 379.731, 343.211 378.518, 348.316 381.108 C 349.517 381.718, 355.931 387.592, 362.568 394.162 L 374.636 406.107 383.069 398.735 C 387.707 394.680, 394.291 388.244, 397.700 384.431 L 403.898 377.500 392.008 365.471 C 385.469 358.854, 379.642 352.188, 379.059 350.656 C 376.807 344.732, 377.728 340.354, 383.107 331.417 C 389.708 320.450, 394.410 309.208, 398.130 295.500 C 402.980 277.625, 405.756 276, 431.433 276 C 445.452 276, 445.780 275.951, 446.370 273.750 C 447.140 270.876, 447.161 241.203, 446.395 238.347 C 445.838 236.269, 445.225 236.182, 428.659 235.821 C 405.235 235.310, 402.969 233.983, 398.542 218.180 C 394.898 205.175, 391.653 196.901, 386.464 187.382 C 381.763 178.757, 380.689 172.453, 383.108 167.684 C 383.718 166.483, 389.801 159.860, 396.627 152.967 L 409.038 140.435 403.653 133.967 C 400.692 130.410, 394.366 123.716, 389.594 119.091 L 380.919 110.682 368.710 122.750 C 352.381 138.890, 349.800 139.417, 333.500 129.935 C 321.310 122.844, 310.144 117.747, 296.477 113.034 C 282.145 108.092, 281.683 107.836, 278.839 103.263 C 276.678 99.786, 276.474 98.237, 276.151 82.865 L 275.803 66.230 272.151 65.626 C 268.155 64.965, 241.806 65.017, 238.348 65.693 M 237.113 161.486 C 227.122 163.745, 221.178 165.904, 212 170.605 C 188.886 182.444, 171.282 203.778, 163.351 229.562 C 160.797 237.865, 160.601 239.744, 160.601 256 C 160.601 272.256, 160.797 274.135, 163.351 282.438 C 173.228 314.549, 197.451 338.772, 229.562 348.649 C 237.865 351.203, 239.744 351.399, 256 351.399 C 272.256 351.399, 274.135 351.203, 282.438 348.649 C 314.549 338.772, 338.772 314.549, 348.649 282.438 C 351.203 274.135, 351.399 272.256, 351.399 256 C 351.399 239.744, 351.203 237.865, 348.649 229.562 C 338.763 197.422, 314.282 172.967, 282.438 163.421 C 274.856 161.148, 271.225 160.688, 258.500 160.392 C 247.908 160.145, 241.623 160.466, 237.113 161.486 M 247.500 193.012 C 233.449 194.947, 222.355 200.637, 211.372 211.542 C 198.644 224.181, 192.673 238.376, 192.673 256 C 192.673 266.849, 194.214 273.419, 199.225 283.944 C 204.907 295.878, 216.122 307.093, 228.056 312.775 C 238.581 317.786, 245.151 319.327, 256 319.327 C 266.849 319.327, 273.419 317.786, 283.944 312.775 C 295.878 307.093, 307.093 295.878, 312.775 283.944 C 317.786 273.419, 319.327 266.849, 319.327 256 C 319.327 245.151, 317.786 238.581, 312.775 228.056 C 307.093 216.122, 295.878 204.907, 283.944 199.225 C 271.643 193.369, 259.700 191.333, 247.500 193.012" stroke="none" fill="#fffcfc" fill-rule="evenodd"/><path d="" stroke="none" fill="#fcfcfc" fill-rule="evenodd"/></svg>