<svg xmlns="http://www.w3.org/2000/svg" width="512" height="512" viewBox="0 0 512 512" version="1.1"><path d="M 215.500 1.896 C 213.300 2.914, 210.287 5.042, 208.804 6.624 C 207.321 8.206, 205.235 11.525, 204.168 14 C 203.102 16.475, 200.974 23.730, 199.440 30.123 C 196.650 41.745, 196.650 41.745, 191.075 43.443 C 188.009 44.377, 182.350 46.283, 178.500 47.679 C 174.650 49.076, 165.784 52.934, 158.798 56.253 C 146.095 62.287, 146.095 62.287, 132.821 54.393 C 119.829 46.669, 119.407 46.501, 113.023 46.537 C 108.328 46.564, 105.379 47.173, 102.500 48.712 C 100.300 49.888, 94.985 54.409, 90.688 58.760 C 84.362 65.164, 82.858 67.276, 82.785 69.858 C 82.727 71.911, 83.522 73.927, 85.021 75.523 C 86.460 77.054, 88.455 78, 90.248 78 C 92.508 78, 94.985 76.239, 101.500 70 C 107.396 64.353, 110.590 62, 112.358 62 C 113.735 62, 120.856 65.600, 128.181 70 C 135.506 74.399, 143.005 78.282, 144.845 78.629 C 147.619 79.151, 149.892 78.371, 158.165 74.061 C 163.651 71.203, 172.946 66.936, 178.820 64.580 C 184.694 62.224, 193.031 59.250, 197.348 57.973 C 202.443 56.465, 206.168 54.678, 207.967 52.879 C 210.227 50.619, 211.431 47.325, 214.499 35.004 C 216.567 26.698, 219.061 18.911, 220.041 17.701 C 221.815 15.511, 221.992 15.500, 256 15.500 C 290.008 15.500, 290.185 15.511, 291.959 17.701 C 292.939 18.911, 295.433 26.698, 297.501 35.004 C 300.569 47.325, 301.773 50.619, 304.033 52.879 C 305.832 54.678, 309.557 56.465, 314.652 57.973 C 318.969 59.250, 327.306 62.224, 333.180 64.580 C 339.054 66.936, 348.349 71.203, 353.835 74.061 C 362.108 78.371, 364.381 79.151, 367.155 78.629 C 368.995 78.282, 376.494 74.399, 383.819 70 C 391.565 65.347, 398.250 62, 399.796 62 C 401.932 62, 407.122 66.668, 426.227 85.773 C 445.332 104.878, 450 110.068, 450 112.204 C 450 113.750, 446.653 120.435, 442 128.181 C 437.601 135.506, 433.718 143.005, 433.371 144.845 C 432.849 147.619, 433.629 149.892, 437.939 158.165 C 440.797 163.651, 445.064 172.946, 447.420 178.820 C 449.776 184.694, 452.750 193.031, 454.027 197.348 C 455.535 202.443, 457.322 206.168, 459.121 207.967 C 461.381 210.227, 464.675 211.431, 476.996 214.499 C 485.302 216.567, 493.089 219.061, 494.299 220.041 C 496.489 221.815, 496.500 221.992, 496.500 256 C 496.500 290.008, 496.489 290.185, 494.299 291.959 C 493.089 292.939, 485.302 295.433, 476.996 297.501 C 464.675 300.569, 461.381 301.773, 459.121 304.033 C 457.322 305.832, 455.535 309.557, 454.027 314.652 C 452.750 318.969, 449.776 327.306, 447.420 333.180 C 445.064 339.054, 440.797 348.349, 437.939 353.835 C 433.629 362.108, 432.849 364.381, 433.371 367.155 C 433.718 368.995, 437.601 376.494, 442 383.819 C 446.653 391.565, 450 398.250, 450 399.796 C 450 401.932, 445.332 407.122, 426.227 426.227 C 407.122 445.332, 401.932 450, 399.796 450 C 398.250 450, 391.565 446.653, 383.819 442 C 376.494 437.601, 368.995 433.718, 367.155 433.371 C 364.381 432.849, 362.108 433.629, 353.835 437.939 C 348.349 440.797, 339.054 445.064, 333.180 447.420 C 327.306 449.776, 318.969 452.750, 314.652 454.027 C 309.557 455.535, 305.832 457.322, 304.033 459.121 C 301.773 461.381, 300.569 464.675, 297.501 476.996 C 295.433 485.302, 292.939 493.089, 291.959 494.299 C 290.185 496.489, 290.008 496.500, 256 496.500 C 221.992 496.500, 221.815 496.489, 220.041 494.299 C 219.061 493.089, 216.567 485.302, 214.499 476.996 C 211.431 464.675, 210.227 461.381, 207.967 459.121 C 206.168 457.322, 202.443 455.535, 197.348 454.027 C 193.031 452.750, 184.694 449.776, 178.820 447.420 C 172.946 445.064, 163.651 440.797, 158.165 437.939 C 149.892 433.629, 147.619 432.849, 144.845 433.371 C 143.005 433.718, 135.506 437.601, 128.181 442 C 120.435 446.653, 113.750 450, 112.204 450 C 110.068 450, 104.878 445.332, 85.773 426.227 C 66.668 407.122, 62 401.932, 62 399.796 C 62 398.250, 65.347 391.565, 70 383.819 C 74.399 376.494, 78.282 368.995, 78.629 367.155 C 79.151 364.381, 78.371 362.108, 74.061 353.835 C 71.203 348.349, 66.936 339.054, 64.580 333.180 C 62.224 327.306, 59.250 318.969, 57.973 314.652 C 56.465 309.557, 54.678 305.832, 52.879 304.033 C 50.619 301.773, 47.325 300.569, 35.004 297.501 C 26.698 295.433, 18.911 292.939, 17.701 291.959 C 15.511 290.185, 15.500 290.008, 15.500 256 C 15.500 221.992, 15.511 221.815, 17.701 220.041 C 18.911 219.061, 26.698 216.567, 35.004 214.499 C 47.325 211.431, 50.619 210.227, 52.879 207.967 C 54.678 206.168, 56.465 202.443, 57.973 197.348 C 59.250 193.031, 62.224 184.694, 64.580 178.820 C 66.936 172.946, 71.203 163.651, 74.061 158.165 C 78.371 149.892, 79.151 147.619, 78.629 144.845 C 78.282 143.005, 74.399 135.506, 70 128.181 C 65.600 120.856, 62 113.720, 62 112.324 C 62 110.531, 64.102 107.619, 69.167 102.396 C 74.985 96.395, 76.333 94.410, 76.333 91.844 C 76.333 89.644, 75.506 87.972, 73.611 86.342 C 72.114 85.054, 69.741 84, 68.338 84 C 66.527 84, 63.614 86.103, 58.295 91.250 C 54.175 95.238, 49.852 100.300, 48.689 102.500 C 47.178 105.357, 46.563 108.365, 46.537 113.023 C 46.501 119.407, 46.669 119.829, 54.393 132.821 C 62.287 146.095, 62.287 146.095, 56.253 158.798 C 52.934 165.784, 49.076 174.650, 47.679 178.500 C 46.283 182.350, 44.377 188.009, 43.443 191.075 C 41.745 196.650, 41.745 196.650, 30.123 199.440 C 23.730 200.974, 16.475 203.102, 14 204.168 C 11.525 205.235, 8.206 207.321, 6.624 208.804 C 5.042 210.287, 2.914 213.300, 1.896 215.500 C 0.200 219.163, 0.044 222.579, 0.044 256 C 0.044 289.421, 0.200 292.837, 1.896 296.500 C 2.914 298.700, 5.042 301.713, 6.624 303.196 C 8.206 304.679, 11.525 306.765, 14 307.832 C 16.475 308.898, 23.730 311.026, 30.123 312.560 C 41.745 315.350, 41.745 315.350, 43.443 320.925 C 44.377 323.991, 46.283 329.650, 47.679 333.500 C 49.076 337.350, 52.934 346.216, 56.253 353.202 C 62.287 365.905, 62.287 365.905, 54.393 379.179 C 46.669 392.171, 46.501 392.593, 46.537 398.977 C 46.564 403.682, 47.172 406.615, 48.718 409.500 C 49.898 411.700, 61.806 424.369, 75.181 437.652 C 88.557 450.936, 101.075 462.621, 103 463.619 C 105.302 464.812, 108.732 465.444, 113.023 465.466 C 119.404 465.499, 119.835 465.328, 132.809 457.614 C 146.072 449.727, 146.072 449.727, 158.786 455.731 C 165.779 459.033, 174.650 462.887, 178.500 464.297 C 182.350 465.706, 188.009 467.623, 191.075 468.557 C 196.650 470.255, 196.650 470.255, 199.440 481.877 C 200.974 488.270, 203.102 495.525, 204.168 498 C 205.235 500.475, 207.321 503.794, 208.804 505.376 C 210.287 506.958, 213.300 509.086, 215.500 510.104 C 219.163 511.800, 222.579 511.956, 256 511.956 C 289.421 511.956, 292.837 511.800, 296.500 510.104 C 298.700 509.086, 301.713 506.958, 303.196 505.376 C 304.679 503.794, 306.765 500.475, 307.832 498 C 308.898 495.525, 311.031 488.247, 312.572 481.828 C 315.374 470.155, 315.374 470.155, 319.937 468.912 C 322.447 468.229, 328.550 466.146, 333.500 464.283 C 338.450 462.420, 347.768 458.381, 354.207 455.307 C 365.913 449.718, 365.913 449.718, 379.184 457.609 C 392.166 465.329, 392.596 465.499, 398.977 465.466 C 403.268 465.444, 406.698 464.812, 409 463.619 C 410.925 462.621, 423.443 450.936, 436.819 437.652 C 450.194 424.369, 462.102 411.700, 463.282 409.500 C 464.828 406.615, 465.436 403.682, 465.463 398.977 C 465.499 392.594, 465.331 392.170, 457.614 379.191 C 449.727 365.928, 449.727 365.928, 455.731 353.214 C 459.033 346.221, 462.887 337.350, 464.297 333.500 C 465.706 329.650, 467.623 323.991, 468.557 320.925 C 470.255 315.350, 470.255 315.350, 481.877 312.560 C 488.270 311.026, 495.525 308.898, 498 307.832 C 500.475 306.765, 503.782 304.679, 505.349 303.196 C 506.916 301.713, 509.278 298.278, 510.599 295.563 C 512.999 290.627, 513 290.614, 513 254.254 C 513 233.156, 512.625 218.114, 512.107 218.434 C 511.615 218.738, 510.929 217.853, 510.581 216.468 C 510.234 215.083, 508.382 212.215, 506.466 210.094 C 504.551 207.974, 500.850 205.340, 498.242 204.242 C 495.634 203.143, 488.247 200.980, 481.828 199.435 C 470.155 196.626, 470.155 196.626, 468.912 192.063 C 468.229 189.553, 466.146 183.450, 464.283 178.500 C 462.420 173.550, 458.381 164.232, 455.307 157.793 C 449.718 146.087, 449.718 146.087, 457.609 132.816 C 465.331 119.830, 465.499 119.406, 465.463 113.023 C 465.436 108.318, 464.828 105.385, 463.282 102.500 C 462.102 100.300, 450.194 87.631, 436.819 74.348 C 423.443 61.064, 410.925 49.379, 409 48.381 C 406.698 47.188, 403.268 46.556, 398.977 46.534 C 392.595 46.501, 392.167 46.671, 379.163 54.403 C 365.873 62.306, 365.873 62.306, 354.186 56.675 C 347.759 53.578, 338.450 49.534, 333.500 47.688 C 328.550 45.841, 322.447 43.771, 319.937 43.088 C 315.374 41.845, 315.374 41.845, 312.572 30.172 C 311.031 23.753, 308.898 16.475, 307.832 14 C 306.765 11.525, 304.679 8.206, 303.196 6.624 C 301.713 5.042, 298.700 2.914, 296.500 1.896 C 292.837 0.200, 289.421 0.044, 256 0.044 C 222.579 0.044, 219.163 0.200, 215.500 1.896 M 234.500 123.555 C 230.100 124.299, 222.450 126.081, 217.500 127.515 C 212.550 128.950, 204.270 132.124, 199.100 134.570 C 193.930 137.015, 185.919 141.531, 181.299 144.605 C 176.679 147.679, 168.842 154.055, 163.884 158.773 C 158.926 163.491, 151.961 171.209, 148.406 175.925 C 144.851 180.641, 139.266 189.900, 135.995 196.500 C 132.724 203.100, 128.898 212.537, 127.493 217.470 C 126.087 222.404, 124.278 230.504, 123.473 235.470 C 122.667 240.437, 122.008 249.675, 122.008 256 C 122.008 262.325, 122.667 271.563, 123.473 276.530 C 124.278 281.496, 126.104 289.596, 127.530 294.530 C 128.957 299.463, 132.124 307.730, 134.570 312.900 C 137.015 318.070, 141.531 326.081, 144.605 330.701 C 147.679 335.321, 154.055 343.158, 158.773 348.116 C 163.491 353.074, 171.209 360.039, 175.925 363.594 C 180.641 367.149, 189.900 372.734, 196.500 376.005 C 203.100 379.276, 212.537 383.102, 217.470 384.507 C 222.404 385.913, 230.504 387.722, 235.470 388.527 C 240.437 389.333, 249.675 389.992, 256 389.992 C 262.325 389.992, 271.563 389.333, 276.530 388.527 C 281.496 387.722, 289.596 385.896, 294.530 384.470 C 299.463 383.043, 307.730 379.876, 312.900 377.430 C 318.070 374.985, 325.945 370.554, 330.400 367.584 C 334.855 364.614, 340.413 360.411, 342.750 358.245 C 345.909 355.318, 347 353.546, 347 351.342 C 347 349.711, 346.088 347.398, 344.972 346.201 C 343.857 345.004, 341.820 343.742, 340.446 343.397 C 338.649 342.946, 336.900 343.512, 334.223 345.411 C 332.175 346.864, 326.675 350.734, 322 354.012 C 317.325 357.290, 309.337 361.804, 304.249 364.043 C 299.162 366.283, 290.612 369.299, 285.249 370.747 C 276.289 373.165, 273.922 373.378, 256 373.378 C 238.057 373.378, 235.718 373.167, 226.706 370.735 C 221.319 369.282, 212.886 366.316, 207.965 364.145 C 203.045 361.973, 195.077 357.578, 190.259 354.376 C 185.442 351.175, 177.437 344.493, 172.472 339.528 C 167.507 334.563, 160.825 326.558, 157.624 321.741 C 154.422 316.923, 150.027 308.955, 147.855 304.035 C 145.684 299.114, 142.713 290.681, 141.253 285.294 C 138.806 276.265, 138.598 273.976, 138.598 256 C 138.598 238.024, 138.806 235.735, 141.253 226.706 C 142.713 221.319, 145.684 212.886, 147.855 207.965 C 150.027 203.045, 154.413 195.077, 157.602 190.259 C 160.792 185.442, 167.474 177.428, 172.451 172.451 C 177.428 167.474, 185.442 160.792, 190.259 157.602 C 195.077 154.413, 203.045 150.027, 207.965 147.855 C 212.886 145.684, 221.319 142.749, 226.706 141.333 C 234.318 139.332, 239.802 138.646, 251.321 138.254 C 260.734 137.933, 268.943 138.199, 273.821 138.983 C 278.044 139.662, 285.280 141.312, 289.900 142.648 C 294.521 143.985, 301.668 146.634, 305.784 148.536 C 309.900 150.437, 317.144 154.570, 321.883 157.719 C 326.623 160.868, 334.563 167.507, 339.528 172.472 C 344.493 177.437, 351.175 185.442, 354.376 190.259 C 357.578 195.077, 361.973 203.045, 364.145 207.965 C 366.316 212.886, 369.276 221.319, 370.721 226.706 C 373.104 235.585, 373.356 238.276, 373.425 255.500 C 373.491 272.148, 373.218 275.608, 371.221 283.452 C 369.967 288.375, 367.374 296.250, 365.457 300.951 C 363.540 305.652, 359.464 313.644, 356.398 318.711 C 351.730 326.428, 350.933 328.417, 351.491 330.961 C 351.858 332.631, 353.123 334.673, 354.302 335.499 C 355.481 336.324, 357.499 337, 358.788 337 C 360.077 337, 361.969 336.552, 362.992 336.004 C 364.015 335.457, 366.887 331.744, 369.374 327.754 C 371.861 323.764, 375.689 316.672, 377.881 311.994 C 380.073 307.316, 383.036 299.455, 384.465 294.524 C 385.894 289.594, 387.722 281.496, 388.527 276.530 C 389.333 271.563, 389.992 262.325, 389.992 256 C 389.992 249.675, 389.333 240.437, 388.527 235.470 C 387.722 230.504, 385.913 222.404, 384.507 217.470 C 383.102 212.537, 379.276 203.100, 376.005 196.500 C 372.734 189.900, 367.149 180.641, 363.594 175.925 C 360.039 171.209, 353.074 163.491, 348.116 158.773 C 343.158 154.055, 335.321 147.679, 330.701 144.605 C 326.081 141.531, 318.070 137.015, 312.900 134.570 C 307.730 132.124, 299.463 128.957, 294.530 127.530 C 289.596 126.104, 281.496 124.278, 276.530 123.473 C 271.563 122.667, 261.875 122.052, 255 122.106 C 248.125 122.160, 238.900 122.812, 234.500 123.555 M 0.453 256 C 0.453 276.625, 0.586 285.063, 0.749 274.750 C 0.911 264.438, 0.911 247.563, 0.749 237.250 C 0.586 226.938, 0.453 235.375, 0.453 256" stroke="none" fill="#fffcfc" fill-rule="evenodd"/><path d="" stroke="none" fill="#fcfcfc" fill-rule="evenodd"/></svg>